<?xml version="1.0" encoding="utf-8"?>
<!-- Generator: Adobe Illustrator 16.0.2, SVG Export Plug-In . SVG Version: 6.00 Build 0)  -->
<!DOCTYPE svg PUBLIC "-//W3C//DTD SVG 1.1//EN" "http://www.w3.org/Graphics/SVG/1.1/DTD/svg11.dtd">
<svg version="1.1" xmlns="http://www.w3.org/2000/svg" xmlns:xlink="http://www.w3.org/1999/xlink" x="0px" y="0px"
	 viewBox = "0 0 500 365"
	 xml:space="preserve">

<animate attributeName = "viewBox" begin = "big.end + 1s" dur = "0.96s" from = "0 0 500 365" to = "0 0 400 365" fill = "freeze" />


<animate id = "sesemeblur" attributeName = "stdDeviation" from = "0" to ="4"
	begin = "big.end + 1.2s" dur = "0.5s" fill = "freeze" 
	xlink:href = "#monumentblur" />

<filter id = "blurrySeseme">
	<feGaussianBlur id = "monumentblur" stdDeviation = "0, 0" />
</filter>


<g id="social" pointer-events = "all" transform = "translate(-1400, -325)">

<animateTransform attributeName = "transform"
			type = "translate"
			from = "0,0" to = "-200, 0"
			additive  = "sum" fill = "freeze"
			begin = "big.end + 1s" dur = "0.96s"
			/>		

	<g id="guy2">
		<animateTransform attributeName = "transform"
			type = "translate"
			from = "0,0" to = "115,0"
			additive = "sum"
			begin = "big.end + 1s" dur = "0.7s"
			fill = "freeze"
			/>
		<path fill="#FFFFFF" stroke="#000000" stroke-width="7" stroke-miterlimit="10" d="M1522.852,444.974c0,4.392,0,189.45,0,189.45
			c0,10.452-14.388,14.538-14.388,0c0,0-4.239-88.589-4.239-95.858c0-7.269-8.934-7.269-8.934,0l-7.876,95.858
			c0,14.538-21.807,15.447-21.807,0c0,0-4.544-107.219-4.544-111.762"/>
		<path fill="#FFFFFF" stroke="#000000" stroke-width="7" stroke-miterlimit="10" d="M1466.668,444.977c0,0,0,48.461,0,59.97
			c0,27.259-6.026,29.071-11.964,29.073c-6.209,0.003-13.478-42.551-13.478-62.995s4.239-46.643,4.239-46.643
			c4.544-14.536,6.996-18.779,21.531-20.751c0-23.816-2.778-56.335,25.416-56.335c28.193,0,24.56,33.357,24.56,56.335
			c0,0,15.22,6.618,18.752,17.722c4.239,13.326,5.451,99.344-2.728,102.675c-9.993,3.938-10.6-5.754-10.6-5.754l-0.606-73.297"/>
	</g>
	<g id="monument" filter = "url(#blurrySeseme)">

		<rect x="1779.561" y="511.799" fill="none" stroke="#000000" stroke-width="7" stroke-miterlimit="10" width="88" height="144">
			<animate attributeName = "stroke" from = "#000000" to = "#898989" begin = "big.end + 1s" dur = "0.7s" fill = "freeze" additive = "sum" /> 
		</rect>
		<rect x="1787.561" y="370.799" fill="none" stroke="#000000" stroke-width="7" stroke-miterlimit="10" width="32" height="141">
			<animate attributeName = "stroke" from = "#000000" to = "#898989" begin = "big.end + 1s" dur = "0.7s" fill = "freeze" additive = "sum" /> 
		</rect>
		<rect x="1833.561" y="410.799" fill="none" stroke="#000000" stroke-width="7" stroke-miterlimit="10" width="24" height="99">
			<animate attributeName = "stroke" from = "#000000" to = "#898989" begin = "big.end + 1s" dur = "0.7s" fill = "freeze" additive = "sum" /> 
		</rect>
		
		<rect x="1829.561" y="453.799" fill="#FFFFFF" stroke="#000000" stroke-width="7" stroke-miterlimit="10" width="32" height="58">
			<animate attributeName = "stroke" from = "#000000" to = "#898989" begin = "big.end + 1s" dur = "0.7s" fill = "freeze" additive = "sum" /> 
		</rect>
	</g>
	
<g id = "guy1">
	<animateTransform attributeName = "transform"
			type = "translate"
			from = "0,0" to = "15,0"
			additive = "sum"
			begin = "big.end + 1s" dur = "0.7s"
			fill = "freeze"
			/>
	<polyline id="dudesphone" fill="#FFFFFF" stroke="#000000" stroke-width="7" stroke-miterlimit="10" points="1785.904,465.649 
		1777.278,460.844 1791.209,431.388 1805.241,438.085 1794.894,460.466 	"/>
	<path id="guy_1" fill="#FFFFFF" stroke="#000000" stroke-width="7" stroke-miterlimit="10" d="M1722.559,454.796
		c0,4.833,0,208.5,0,208.5c0,17-23.333,16-23.333,0c0,0-7.001-97.497-7.001-105.497s-12-8-12,0l-6.332,105.497
		c0,16-24.835,17-24.835,0c0,0,0-203.5,0-208.5c0-4-10-2.48-10,5c0,0,0,57.5,0,80.5c0,0,0.377,13.602-4.5,12.5
		c-15.5-3.5-18.5-47.5-18.5-70s4-40.5,4-40.5c4-15,18.5-28.5,38.5-33c0-26.212-3.059-62,27.971-62s27.029,36.712,27.029,62
		c17.334,3,38.788,33.552,47.001,51.666c6.499,14.334,14.499,10.334,18.667,8c3.29-1.842,12.666-11.332,19.333-4.666
		s-0.667,14-6.001,18s-25.5,20.834-37.5,9.5s-17.347-24.838-22.5-34C1728.058,449.796,1722.559,449.963,1722.559,454.796z">
		
	</path>
</g>

<line fill="#FFFFFF" stroke="#000000" stroke-width="7" stroke-miterlimit="10" stroke-dasharray="7" x1="1543.167" y1="378.5" x2="1543.167" y2="378.5">
	<animate attributeName = "x2" from = "1543.167" to = "1639.167"
		fill = "freeze" begin = "indefinite" dur = "0.4s" id = "big"/>
	<animate attributeName = "x1" from = "1543.167" to = "1639.167"
		fill = "freeze" begin = "big.end + 0.7s" dur = "0.25s"/>
</line>

</g>

</svg>
