<?xml version="1.0" encoding="utf-8"?>
<!-- Generator: Adobe Illustrator 16.0.2, SVG Export Plug-In . SVG Version: 6.00 Build 0)  -->
<!DOCTYPE svg PUBLIC "-//W3C//DTD SVG 1.1//EN" "http://www.w3.org/Graphics/SVG/1.1/DTD/svg11.dtd">
<svg version="1.1" id="Layer_1" xmlns="http://www.w3.org/2000/svg" xmlns:xlink="http://www.w3.org/1999/xlink" x="0px" y="0px"
	 width="218px" height="316px" viewBox="-659.6 646.6 218 316" enable-background="new -659.6 646.6 218 316" xml:space="preserve">
<path fill="#FFFFFF" d="M-560.1,751.1c0-28.8-8.1-40.5-20.4-40.5s-20.4,8.8-20.4,40.5c-39.2,11.5-43.4,31-43.4,61.5s0,32.9,0,32.9
	c0,11.9,17.7,11.3,17.7,0v-39.8c0-7.8,8.8-7.8,8.8-0.7c0,10,0,129.3,0,129.3c0.2,19.2,23.1,19.3,24.8,0l3.8-61.6
	c0,0,0.3-10.3,8.6-10.3c8.3,0,8.6,10.3,8.6,10.3l3.8,61.6c1.7,19.3,24.6,19.2,24.8,0c0,0,0-119.4,0-129.3c0-7.1,8.8-7.1,8.8,0.7
	v39.8c0,11.3,17.7,11.9,17.7,0c0,0,0-2.4,0-32.9C-516.8,782.1-521,762.6-560.1,751.1z"/>
<path fill="#FFFFFF" d="M-527,711.9h-14.1c-3,0-5.5-2.5-5.5-5.5v-42.9c0-3,2.5-5.5,5.5-5.5h84.2c3,0,5.5,2.5,5.5,5.5v42.9
	c0,3-2.5,5.5-5.5,5.5h-47.3l-30.9,20.7L-527,711.9"/>
</svg>
