<?xml version="1.0" encoding="utf-8"?>
<!-- Generator: Adobe Illustrator 16.0.2, SVG Export Plug-In . SVG Version: 6.00 Build 0)  -->
<!DOCTYPE svg PUBLIC "-//W3C//DTD SVG 1.1//EN" "http://www.w3.org/Graphics/SVG/1.1/DTD/svg11.dtd">
<svg version="1.1" id="Layer_1" xmlns="http://www.w3.org/2000/svg" xmlns:xlink="http://www.w3.org/1999/xlink" x="0px" y="0px"
	 width="100px" height="100px" viewBox="0 0 100 100" enable-background="new 0 0 100 100" xml:space="preserve">
<g>
	<path fill="#FFFFFF" d="M32.494,62.912c-0.283,0.324-0.536,0.682-0.748,1.078l-14.5,27.181c-1.512,2.833-0.441,6.354,2.392,7.863
		c2.832,1.512,6.354,0.442,7.864-2.392l14.501-27.182c0.212-0.396,0.367-0.806,0.479-1.223
		C38.709,67.482,35.225,65.623,32.494,62.912z"/>
	<path fill="#FFFFFF" d="M70.216,4.231c-16.212-8.65-36.441-2.497-45.09,13.717c-8.65,16.213-2.497,36.439,13.717,45.091
		c16.212,8.648,36.44,2.496,45.091-13.717C92.582,33.108,86.43,12.881,70.216,4.231z M44.314,52.781
		C33.757,47.149,29.75,33.978,35.382,23.42c5.633-10.557,18.804-14.564,29.361-8.932c10.558,5.632,14.563,18.803,8.933,29.362
		C68.043,54.407,54.872,58.414,44.314,52.781z"/>
	<path fill="#FFFFFF" d="M62.098,17.355c-1.418-0.756-3.179-0.22-3.934,1.195c-0.755,1.417-0.221,3.178,1.195,3.934
		c6.692,3.57,9.232,11.92,5.662,18.612c-0.756,1.417-0.22,3.177,1.196,3.934c1.416,0.755,3.177,0.22,3.933-1.197
		C75.23,34.312,71.617,22.434,62.098,17.355z"/>
</g>
</svg>
