<?xml version="1.0" encoding="utf-8"?>
<!-- Generator: Adobe Illustrator 16.0.2, SVG Export Plug-In . SVG Version: 6.00 Build 0)  -->
<!DOCTYPE svg PUBLIC "-//W3C//DTD SVG 1.1//EN" "http://www.w3.org/Graphics/SVG/1.1/DTD/svg11.dtd">
<svg version="1.1" xmlns="http://www.w3.org/2000/svg" xmlns:xlink="http://www.w3.org/1999/xlink" x="0px" y="0px"
	 viewBox = "0 0 690 600"
	 xml:space="preserve">
<link href='http://fonts.googleapis.com/css?family=Roboto:500,300,400,700' rel='stylesheet' type='text/css' />


<defs>
	<filter id = "blur">
		<feGaussianBlur id = "gausBlur" stdDeviation = "0" />
	</filter>
</defs>


<g id="building" pointer-events = "all" transform = "translate(580,-230)">

		
	<g id="linesetc" opacity = "1" >

		
		
		<g id="gridline" >
			<g>
					<line fill="gl1" opacity = "0" stroke="#898989" stroke-width="5" stroke-linecap="round" stroke-miterlimit="10" stroke-dasharray="0.1,9.1821" x1="-11.762" y1="632.852" x2="-11.762" y2="632.852">
					</line>

					<line fill="gl2" opacity = "0" stroke="#898989" stroke-width="5" stroke-linecap="round" stroke-miterlimit="10" stroke-dasharray="0.1,9.0306" x1="-112.614" y1="641.443" x2="-112.614" y2="641.443">
					</line>
			</g>
		</g>
		<g id="wifi" >

			<path id="wifi3" fill="#898989" d="M-101.588,304.307v11.675c50.19,0,91.022,40.833,91.022,91.022H1.109
				C1.109,350.287-44.87,304.307-101.588,304.307z" opacity = "0">
		
			</path>

			<path id="wifi2" fill="#898989" d="M-101.588,335.606v10.679c33.48,0,60.719,27.238,60.719,60.719h10.679
				C-30.19,367.635-62.219,335.606-101.588,335.606z" opacity = "0">

			</path>

			<path id="wifi1" fill="#898989" d="M-101.588,365.91v9.788c17.262,0,31.306,14.045,31.306,31.307h9.789
				C-60.493,384.344-78.927,365.91-101.588,365.91z" opacity = "0">
	
			</path>

		</g>
		<g id="grid" >
			

			
		</g>
	</g>
	
		<circle id="sun" fill="none" stroke="#000000" stroke-width="7" stroke-miterlimit="10" cx="-416.639" cy="403.163" r="89.712" filter = "url(#blur)">
	
		</circle>
	<g id="buildings_1_">
		<polygon fill="#FFFFFF" stroke="#000000" stroke-width="7" stroke-miterlimit="10" points="-566.394,670.803 -566.394,451.98 
			-416.639,403.162 -416.639,670.803 		"/>
		
			<line fill="#FFFFFF" stroke="#000000" stroke-width="7" stroke-miterlimit="10" x1="-566.394" y1="434.155" x2="-416.639" y2="385.336"/>
		<polygon fill="#FFFFFF" stroke="#000000" stroke-width="7" stroke-miterlimit="10" points="-416.639,670.803 -416.639,451.98 
			-266.884,403.162 -266.884,670.803 		"/>
		<polygon fill="#FFFFFF" stroke="#000000" stroke-width="7" stroke-miterlimit="10" points="-266.884,670.803 -266.884,451.98 
			-117.129,403.162 -117.129,670.803 		"/>
		
			<line fill="none" stroke="#000000" stroke-width="7" stroke-miterlimit="10" x1="-491.517" y1="409.746" x2="-491.517" y2="427.571"/>
		
			<line fill="#FFFFFF" stroke="#000000" stroke-width="7" stroke-miterlimit="10" x1="-416.639" y1="436.839" x2="-266.884" y2="388.021"/>
		
			<line fill="none" stroke="#000000" stroke-width="7" stroke-miterlimit="10" x1="-341.762" y1="412.43" x2="-341.762" y2="430.255"/>
		
			<line fill="#FFFFFF" stroke="#000000" stroke-width="7" stroke-miterlimit="10" x1="-266.884" y1="436.839" x2="-117.129" y2="388.021"/>
		
			<line fill="none" stroke="#000000" stroke-width="7" stroke-miterlimit="10" x1="-192.007" y1="412.43" x2="-192.007" y2="430.255"/>
	</g>
	<g id="windows" opacity = "0">


		<g display="inline">
			<g>
				<g>
					
						<rect x="-446.761" y="632.857" fill="none" stroke="#898989" stroke-width="5" stroke-miterlimit="10" width="18" height="18"/>
				</g>
				<g>
					
						<rect x="-446.761" y="590.857" fill="none" stroke="#898989" stroke-width="5" stroke-miterlimit="10" width="18" height="18"/>
				</g>
				<g>
					
						<rect x="-446.761" y="548.857" fill="none" stroke="#898989" stroke-width="5" stroke-miterlimit="10" width="18" height="18"/>
				</g>
				<g>
					
						<rect x="-446.761" y="506.857" fill="none" stroke="#898989" stroke-width="5" stroke-miterlimit="10" width="18" height="18"/>
				</g>
				<g>
					
						<rect x="-446.761" y="464.857" fill="none" stroke="#898989" stroke-width="5" stroke-miterlimit="10" width="18" height="18"/>
				</g>
			</g>
			<g>
				<g>
					
						<rect x="-473.761" y="632.857" fill="none" stroke="#898989" stroke-width="5" stroke-miterlimit="10" width="18" height="18"/>
				</g>
				<g>
					
						<rect x="-473.761" y="590.857" fill="none" stroke="#898989" stroke-width="5" stroke-miterlimit="10" width="18" height="18"/>
				</g>
				<g>
					
						<rect x="-473.761" y="548.857" fill="none" stroke="#898989" stroke-width="5" stroke-miterlimit="10" width="18" height="18"/>
				</g>
				<g>
					
						<rect x="-473.761" y="506.857" fill="none" stroke="#898989" stroke-width="5" stroke-miterlimit="10" width="18" height="18"/>
				</g>
				<g>
					
						<rect x="-473.761" y="464.857" fill="none" stroke="#898989" stroke-width="5" stroke-miterlimit="10" width="18" height="18"/>
				</g>
			</g>
			<g>
				<g>
					
						<rect x="-500.761" y="632.857" fill="none" stroke="#898989" stroke-width="5" stroke-miterlimit="10" width="18" height="18"/>
				</g>
				<g>
					
						<rect x="-500.761" y="590.857" fill="none" stroke="#898989" stroke-width="5" stroke-miterlimit="10" width="18" height="18"/>
				</g>
				<g>
					
						<rect x="-500.761" y="548.857" fill="none" stroke="#898989" stroke-width="5" stroke-miterlimit="10" width="18" height="18"/>
				</g>
				<g>
					
						<rect x="-500.761" y="506.857" fill="none" stroke="#898989" stroke-width="5" stroke-miterlimit="10" width="18" height="18"/>
				</g>
				<g>
					
						<rect x="-500.761" y="464.857" fill="none" stroke="#898989" stroke-width="5" stroke-miterlimit="10" width="18" height="18"/>
				</g>
			</g>
			<g>
				<g>
					
						<rect x="-527.761" y="632.857" fill="none" stroke="#898989" stroke-width="5" stroke-miterlimit="10" width="18" height="18"/>
				</g>
				<g>
					
						<rect x="-527.761" y="590.857" fill="none" stroke="#898989" stroke-width="5" stroke-miterlimit="10" width="18" height="18"/>
				</g>
				<g>
					
						<rect x="-527.761" y="548.857" fill="none" stroke="#898989" stroke-width="5" stroke-miterlimit="10" width="18" height="18"/>
				</g>
				<g>
					
						<rect x="-527.761" y="506.857" fill="none" stroke="#898989" stroke-width="5" stroke-miterlimit="10" width="18" height="18"/>
				</g>
				<g>
					
						<rect x="-527.761" y="464.857" fill="none" stroke="#898989" stroke-width="5" stroke-miterlimit="10" width="18" height="18"/>
				</g>
			</g>
			<g>
				<g>
					
						<rect x="-554.761" y="632.857" fill="none" stroke="#898989" stroke-width="5" stroke-miterlimit="10" width="18" height="18"/>
				</g>
				<g>
					
						<rect x="-554.761" y="590.857" fill="none" stroke="#898989" stroke-width="5" stroke-miterlimit="10" width="18" height="18"/>
				</g>
				<g>
					
						<rect x="-554.761" y="548.857" fill="none" stroke="#898989" stroke-width="5" stroke-miterlimit="10" width="18" height="18"/>
				</g>
				<g>
					
						<rect x="-554.761" y="506.857" fill="none" stroke="#898989" stroke-width="5" stroke-miterlimit="10" width="18" height="18"/>
				</g>
				<g>
					
						<rect x="-554.761" y="464.857" fill="none" stroke="#898989" stroke-width="5" stroke-miterlimit="10" width="18" height="18"/>
				</g>
			</g>
		</g>
		<g display="inline">
			<g>
				<g>
					
						<rect x="-296.762" y="632.857" fill="none" stroke="#898989" stroke-width="5" stroke-miterlimit="10" width="18" height="18"/>
				</g>
				<g>
					
						<rect x="-296.762" y="590.857" fill="none" stroke="#898989" stroke-width="5" stroke-miterlimit="10" width="18" height="18"/>
				</g>
				<g>
					
						<rect x="-296.762" y="548.857" fill="none" stroke="#898989" stroke-width="5" stroke-miterlimit="10" width="18" height="18"/>
				</g>
				<g>
					
						<rect x="-296.762" y="506.857" fill="none" stroke="#898989" stroke-width="5" stroke-miterlimit="10" width="18" height="18"/>
				</g>
				<g>
					
						<rect x="-296.762" y="464.857" fill="none" stroke="#898989" stroke-width="5" stroke-miterlimit="10" width="18" height="18"/>
				</g>
			</g>
			<g>
				<g>
					
						<rect x="-323.762" y="632.857" fill="none" stroke="#898989" stroke-width="5" stroke-miterlimit="10" width="18" height="18"/>
				</g>
				<g>
					
						<rect x="-323.762" y="590.857" fill="none" stroke="#898989" stroke-width="5" stroke-miterlimit="10" width="18" height="18"/>
				</g>
				<g>
					
						<rect x="-323.762" y="548.857" fill="none" stroke="#898989" stroke-width="5" stroke-miterlimit="10" width="18" height="18"/>
				</g>
				<g>
					
						<rect x="-323.762" y="506.857" fill="none" stroke="#898989" stroke-width="5" stroke-miterlimit="10" width="18" height="18"/>
				</g>
				<g>
					
						<rect x="-323.762" y="464.857" fill="none" stroke="#898989" stroke-width="5" stroke-miterlimit="10" width="18" height="18"/>
				</g>
			</g>
			<g>
				<g>
					
						<rect x="-350.762" y="632.857" fill="none" stroke="#898989" stroke-width="5" stroke-miterlimit="10" width="18" height="18"/>
				</g>
				<g>
					
						<rect x="-350.762" y="590.857" fill="none" stroke="#898989" stroke-width="5" stroke-miterlimit="10" width="18" height="18"/>
				</g>
				<g>
					
						<rect x="-350.762" y="548.857" fill="none" stroke="#898989" stroke-width="5" stroke-miterlimit="10" width="18" height="18"/>
				</g>
				<g>
					
						<rect x="-350.762" y="506.857" fill="none" stroke="#898989" stroke-width="5" stroke-miterlimit="10" width="18" height="18"/>
				</g>
				<g>
					
						<rect x="-350.762" y="464.857" fill="none" stroke="#898989" stroke-width="5" stroke-miterlimit="10" width="18" height="18"/>
				</g>
			</g>
			<g>
				<g>
					
						<rect x="-377.762" y="632.857" fill="none" stroke="#898989" stroke-width="5" stroke-miterlimit="10" width="18" height="18"/>
				</g>
				<g>
					
						<rect x="-377.762" y="590.857" fill="none" stroke="#898989" stroke-width="5" stroke-miterlimit="10" width="18" height="18"/>
				</g>
				<g>
					
						<rect x="-377.762" y="548.857" fill="none" stroke="#898989" stroke-width="5" stroke-miterlimit="10" width="18" height="18"/>
				</g>
				<g>
					
						<rect x="-377.762" y="506.857" fill="none" stroke="#898989" stroke-width="5" stroke-miterlimit="10" width="18" height="18"/>
				</g>
				<g>
					
						<rect x="-377.762" y="464.857" fill="none" stroke="#898989" stroke-width="5" stroke-miterlimit="10" width="18" height="18"/>
				</g>
			</g>
			<g>
				<g>
					
						<rect x="-404.762" y="632.857" fill="none" stroke="#898989" stroke-width="5" stroke-miterlimit="10" width="18" height="18"/>
				</g>
				<g>
					
						<rect x="-404.762" y="590.857" fill="none" stroke="#898989" stroke-width="5" stroke-miterlimit="10" width="18" height="18"/>
				</g>
				<g>
					
						<rect x="-404.762" y="548.857" fill="none" stroke="#898989" stroke-width="5" stroke-miterlimit="10" width="18" height="18"/>
				</g>
				<g>
					
						<rect x="-404.762" y="506.857" fill="none" stroke="#898989" stroke-width="5" stroke-miterlimit="10" width="18" height="18"/>
				</g>
				<g>
					
						<rect x="-404.762" y="464.857" fill="none" stroke="#898989" stroke-width="5" stroke-miterlimit="10" width="18" height="18"/>
				</g>
			</g>
		</g>
		<g display="inline">
			<g>
				<g>
					
						<rect x="-146.762" y="632.857" fill="none" stroke="#898989" stroke-width="5" stroke-miterlimit="10" width="18" height="18"/>
				</g>
				<g>
					
						<rect x="-146.762" y="590.857" fill="none" stroke="#898989" stroke-width="5" stroke-miterlimit="10" width="18" height="18"/>
				</g>
				<g>
					
						<rect x="-146.762" y="548.857" fill="none" stroke="#898989" stroke-width="5" stroke-miterlimit="10" width="18" height="18"/>
				</g>
				<g>
					
						<rect x="-146.762" y="506.857" fill="none" stroke="#898989" stroke-width="5" stroke-miterlimit="10" width="18" height="18"/>
				</g>
				<g>
					
						<rect x="-146.762" y="464.857" fill="none" stroke="#898989" stroke-width="5" stroke-miterlimit="10" width="18" height="18"/>
				</g>
			</g>
			<g>
				<g>
					
						<rect x="-173.762" y="632.857" fill="none" stroke="#898989" stroke-width="5" stroke-miterlimit="10" width="18" height="18"/>
				</g>
				<g>
					
						<rect x="-173.762" y="590.857" fill="none" stroke="#898989" stroke-width="5" stroke-miterlimit="10" width="18" height="18"/>
				</g>
				<g>
					
						<rect x="-173.762" y="548.857" fill="none" stroke="#898989" stroke-width="5" stroke-miterlimit="10" width="18" height="18"/>
				</g>
				<g>
					
						<rect x="-173.762" y="506.857" fill="none" stroke="#898989" stroke-width="5" stroke-miterlimit="10" width="18" height="18"/>
				</g>
				<g>
					
						<rect x="-173.762" y="464.857" fill="none" stroke="#898989" stroke-width="5" stroke-miterlimit="10" width="18" height="18"/>
				</g>
			</g>
			<g>
				<g>
					
						<rect x="-200.762" y="632.857" fill="none" stroke="#898989" stroke-width="5" stroke-miterlimit="10" width="18" height="18"/>
				</g>
				<g>
					
						<rect x="-200.762" y="590.857" fill="none" stroke="#898989" stroke-width="5" stroke-miterlimit="10" width="18" height="18"/>
				</g>
				<g>
					
						<rect x="-200.762" y="548.857" fill="none" stroke="#898989" stroke-width="5" stroke-miterlimit="10" width="18" height="18"/>
				</g>
				<g>
					
						<rect x="-200.762" y="506.857" fill="none" stroke="#898989" stroke-width="5" stroke-miterlimit="10" width="18" height="18"/>
				</g>
				<g>
					
						<rect x="-200.762" y="464.857" fill="none" stroke="#898989" stroke-width="5" stroke-miterlimit="10" width="18" height="18"/>
				</g>
			</g>
			<g>
				<g>
					
						<rect x="-227.762" y="632.857" fill="none" stroke="#898989" stroke-width="5" stroke-miterlimit="10" width="18" height="18"/>
				</g>
				<g>
					
						<rect x="-227.762" y="590.857" fill="none" stroke="#898989" stroke-width="5" stroke-miterlimit="10" width="18" height="18"/>
				</g>
				<g>
					
						<rect x="-227.762" y="548.857" fill="none" stroke="#898989" stroke-width="5" stroke-miterlimit="10" width="18" height="18"/>
				</g>
				<g>
					
						<rect x="-227.762" y="506.857" fill="none" stroke="#898989" stroke-width="5" stroke-miterlimit="10" width="18" height="18"/>
				</g>
				<g>
					
						<rect x="-227.762" y="464.857" fill="none" stroke="#898989" stroke-width="5" stroke-miterlimit="10" width="18" height="18"/>
				</g>
			</g>
			<g>
				<g>
					
						<rect x="-254.762" y="632.857" fill="none" stroke="#898989" stroke-width="5" stroke-miterlimit="10" width="18" height="18"/>
				</g>
				<g>
					
						<rect x="-254.762" y="590.857" fill="none" stroke="#898989" stroke-width="5" stroke-miterlimit="10" width="18" height="18"/>
				</g>
				<g>
					
						<rect x="-254.762" y="548.857" fill="none" stroke="#898989" stroke-width="5" stroke-miterlimit="10" width="18" height="18"/>
				</g>
				<g>
					
						<rect x="-254.762" y="506.857" fill="none" stroke="#898989" stroke-width="5" stroke-miterlimit="10" width="18" height="18"/>
				</g>
				<g>
					
						<rect x="-254.762" y="464.857" fill="none" stroke="#898989" stroke-width="5" stroke-miterlimit="10" width="18" height="18"/>
				</g>
			</g>
		</g>
	</g>
</g>
<g id="text">
</g>
</svg>
