<?xml version="1.0" encoding="utf-8"?>
<!-- Generator: Adobe Illustrator 16.0.2, SVG Export Plug-In . SVG Version: 6.00 Build 0)  -->
<!DOCTYPE svg PUBLIC "-//W3C//DTD SVG 1.1//EN" "http://www.w3.org/Graphics/SVG/1.1/DTD/svg11.dtd">
<svg version="1.1" xmlns="http://www.w3.org/2000/svg" xmlns:xlink="http://www.w3.org/1999/xlink" x="0px" y="0px"
	 viewBox = "0 0 300 600"
	 xml:space="preserve">

<g id="seseme" pointer-events = "all" transform = "translate(-600, -100)">


	<g id="Pedestal">
		<polygon fill="none" stroke="#000000" stroke-width="6" stroke-miterlimit="10" points="638.501,381.008 638.501,636.644 
			750.554,687.763 862.606,632.359 862.606,381.008 750.554,333.63 		"/>
		<polyline fill="none" stroke="#000000" stroke-width="6" stroke-miterlimit="10" points="638.501,381.008 750.554,435.738 
			862.606,381.008 		"/>
			
				<line fill="none" stroke="#000000" stroke-width="6" stroke-miterlimit="10" x1="750.554" y1="435.738" x2="750.554" y2="687.763"/>
		</g>
	<g id="Pillar4">
			<animateTransform id = "big" attributeName = "transform"
			type = "translate"
			from = "0,0" to = "0,100"
			additive = "sum"
			begin = "indefinite" dur = "3s"
			fill = "freeze"
			/>
		<polygon fill="none" stroke="#000000" stroke-width="5" stroke-miterlimit="10" points="709.208,356.426 709.208,147.073 
			750.917,126.561 791.903,147.073 791.903,356.426 		"/>
		<polyline fill="none" stroke="#231F20" stroke-width="5" stroke-miterlimit="10" points="709.208,157.669 750.554,178.386 
			791.903,157.669 		"/>
		<polyline fill="none" stroke="#231F20" stroke-width="5" stroke-miterlimit="10" points="709.208,147.073 750.554,167.267 
			791.903,147.073 		"/>
		
			<line fill="none" stroke="#231F20" stroke-width="5" stroke-miterlimit="10" x1="750.554" y1="167.267" x2="750.554" y2="178.386"/>
	</g>
	<g id="Pillar3">
		<animateTransform  attributeName = "transform"
			type = "translate"
			from = "0,0" to = "0,-50"
			additive = "sum"
			begin = "big.begin" dur = "1.5s"
			fill = "freeze"
			/>
		<polygon fill="#FFFFFF" stroke="#000000" stroke-width="5" stroke-miterlimit="10" points="699.367,516.522 658.022,496.079 
			658.022,201.38 699.367,180.688 740.715,200.882 740.715,211.479 699.368,231.673 		"/>
		<polyline fill="#FFFFFF" stroke="#000000" stroke-width="5" stroke-miterlimit="10" points="658.022,201.38 699.368,221.576 
			740.715,200.882 		"/>
		
			<line fill="none" stroke="#000000" stroke-width="5" stroke-miterlimit="10" x1="699.368" y1="231.673" x2="699.368" y2="221.576"/>
	</g>
	<g id="Pillar2">
		<animateTransform  attributeName = "transform"
			type = "translate"
			from = "0,0" to = "0,-100"
			additive = "sum"
			begin = "big.begin" dur = "3.5s"
			fill = "freeze"
			/>
		<polygon fill="#FFFFFF" stroke="#000000" stroke-width="5" stroke-miterlimit="10" points="801.741,525.232 801.741,311.189 
			760.394,290.995 760.394,280.398 801.741,260.204 843.087,280.897 843.087,504.787 		"/>
		<polyline fill="#FFFFFF" stroke="#000000" stroke-width="5" stroke-miterlimit="10" points="760.394,280.398 801.741,301.092 
			843.087,280.897 		"/>
		
			<line fill="none" stroke="#000000" stroke-width="5" stroke-miterlimit="10" x1="801.741" y1="311.189" x2="801.741" y2="301.092"/>
	</g>
	<g id="Pillar1">
		<animateTransform  attributeName = "transform"
			type = "translate"
			from = "0,0" to = "0,75"
			additive = "sum"
			begin = "big.begin" dur = "2s"
			fill = "freeze"
			/>
		<polygon fill="#FFFFFF" stroke="#000000" stroke-width="5" stroke-miterlimit="10" points="709.208,405.791 750.554,425.643 
			791.901,405.198 791.901,261.743 750.554,241.05 709.208,261.743 		"/>
		
			<line fill="none" stroke="#000000" stroke-width="5" stroke-miterlimit="10" x1="750.554" y1="281.938" x2="750.554" y2="425.643"/>
		
			<line fill="none" stroke="#000000" stroke-width="5" stroke-miterlimit="10" x1="750.554" y1="425.643" x2="750.554" y2="281.938"/>
		<path fill="#FFFFFF" stroke="#000000" stroke-width="5" stroke-miterlimit="10" d="M772.835,300.572"/>
		<path fill="#FFFFFF" stroke="#000000" stroke-width="5" stroke-miterlimit="10" d="M791.901,261.743"/>
		<polyline fill="none" stroke="#000000" stroke-width="5" stroke-miterlimit="10" points="709.208,261.743 750.554,281.938 
			791.901,261.743 		"/>
	</g>
	<g id="HideLayer">
		<polygon fill="#FFFFFF" points="655.387,378.509 652.05,637.265 750.554,682.765 851.05,632.765 846.425,379.942 750.554,425.643 
					"/>
		<polyline fill="none" stroke="#000000" stroke-width="6" stroke-miterlimit="10" points="638.501,381.008 750.554,435.738 
			862.606,381.008 		"/>
		
			<line fill="none" stroke="#000000" stroke-width="6" stroke-miterlimit="10" x1="750.554" y1="435.738" x2="750.554" y2="687.763"/>
		<polygon points="750.573,428.447 706.675,406.668 706.675,400.522 750.534,421.773 794.3,401.851 794.3,407.23 		"/>
		<polygon points="701.8,404.276 655.487,381.335 655.487,375.958 701.8,398.898 		"/>
		<polygon points="799.201,404.93 799.201,399.552 845.55,376.963 845.55,382.342 		"/>
	</g>
</g>


</svg>
